<svg width="96" height="98" viewBox="0 0 96 98" fill="none" xmlns="http://www.w3.org/2000/svg">
<rect x="0.238037" y="0.165405" width="95.5655" height="96.9954" rx="10" fill="black"/>
<path d="M74.2072 36.1381H61.114C59.3782 36.1398 57.7141 36.8404 56.4868 38.0861C55.2594 39.3318 54.5691 41.0208 54.5674 42.7825V56.0714C54.5685 57.2459 55.0287 58.3719 55.847 59.2024C56.6652 60.0328 57.7746 60.4999 58.9318 60.5011V76.0048C58.9329 77.1793 59.3931 78.3053 60.2114 79.1357C61.0296 79.9662 62.139 80.4333 63.2962 80.4344H72.025C73.1821 80.4333 74.2916 79.9662 75.1098 79.1357C75.928 78.3053 76.3882 77.1793 76.3894 76.0048V60.5011C77.5465 60.4999 78.656 60.0328 79.4742 59.2024C80.2924 58.3719 80.7526 57.2459 80.7538 56.0714V42.7825C80.7521 41.0208 80.0618 39.3318 78.8344 38.0861C77.6071 36.8404 75.9429 36.1398 74.2072 36.1381ZM76.3894 56.0714H72.025V76.0048H63.2962V56.0714H58.9318V42.7825C58.9318 42.1951 59.1617 41.6318 59.5709 41.2164C59.9802 40.801 60.5352 40.5677 61.114 40.5677H74.2072C74.7859 40.5677 75.341 40.801 75.7502 41.2164C76.1595 41.6318 76.3894 42.1951 76.3894 42.7825V56.0714Z" fill="white"/>
<path d="M58.9318 25.064C58.9318 23.3117 59.4437 21.5988 60.4028 20.1419C61.362 18.685 62.7252 17.5494 64.3202 16.8789C65.9152 16.2083 67.6703 16.0329 69.3635 16.3747C71.0567 16.7166 72.612 17.5603 73.8328 18.7994C75.0535 20.0384 75.8849 21.617 76.2217 23.3356C76.5585 25.0541 76.3856 26.8355 75.725 28.4543C75.0643 30.0732 73.9455 31.4569 72.5101 32.4304C71.0746 33.4039 69.387 33.9235 67.6606 33.9235C65.3463 33.9211 63.1274 32.987 61.4909 31.326C59.8545 29.665 58.9341 27.4129 58.9318 25.064ZM63.2962 25.064C63.2962 25.9401 63.5521 26.7965 64.0317 27.525C64.5113 28.2535 65.1929 28.8212 65.9904 29.1565C66.7879 29.4918 67.6654 29.5795 68.512 29.4086C69.3586 29.2377 70.1363 28.8158 70.7467 28.1963C71.3571 27.5768 71.7727 26.7875 71.9411 25.9282C72.1095 25.0689 72.0231 24.1782 71.6928 23.3688C71.3624 22.5593 70.803 21.8675 70.0853 21.3808C69.3676 20.894 68.5238 20.6342 67.6606 20.6342C66.5034 20.6354 65.394 21.1025 64.5758 21.933C63.7575 22.7634 63.2973 23.8895 63.2962 25.064Z" fill="white"/>
<path d="M45.8386 49.4269V42.7825C45.8368 41.0208 45.1465 39.3318 43.9192 38.0861C42.6918 36.8404 41.0277 36.1398 39.2919 36.1381H26.1987C24.463 36.1398 22.7988 36.8404 21.5715 38.0861C20.3441 39.3318 19.6539 41.0208 19.6521 42.7825V49.4269H15.2877V53.8566H50.203V49.4269H45.8386ZM24.0165 42.7825C24.0165 42.1951 24.2464 41.6318 24.6557 41.2164C25.0649 40.801 25.62 40.5677 26.1987 40.5677H39.2919C39.8707 40.5677 40.4258 40.801 40.835 41.2164C41.2442 41.6318 41.4741 42.1951 41.4741 42.7825V49.4269H24.0165V42.7825Z" fill="white"/>
<path d="M24.0166 25.064C24.0166 23.3117 24.5285 21.5988 25.4877 20.1419C26.4468 18.685 27.8101 17.5494 29.405 16.8789C31 16.2083 32.7551 16.0329 34.4483 16.3747C36.1416 16.7166 37.6969 17.5603 38.9176 18.7994C40.1384 20.0384 40.9697 21.617 41.3065 23.3356C41.6433 25.0541 41.4705 26.8355 40.8098 28.4543C40.1491 30.0732 39.0303 31.4569 37.5949 32.4304C36.1594 33.4039 34.4718 33.9235 32.7454 33.9235C30.4311 33.9211 28.2122 32.987 26.5758 31.326C24.9393 29.665 24.0189 27.4129 24.0166 25.064ZM28.381 25.064C28.381 25.9401 28.637 26.7965 29.1165 27.525C29.5961 28.2535 30.2777 28.8212 31.0752 29.1565C31.8727 29.4918 32.7503 29.5795 33.5969 29.4086C34.4435 29.2377 35.2211 28.8158 35.8315 28.1963C36.4419 27.5768 36.8576 26.7875 37.026 25.9282C37.1944 25.0689 37.1079 24.1782 36.7776 23.3688C36.4473 22.5593 35.8879 21.8675 35.1702 21.3808C34.4524 20.894 33.6086 20.6342 32.7454 20.6342C31.5883 20.6354 30.4788 21.1025 29.6606 21.933C28.8424 22.7634 28.3822 23.8895 28.381 25.064Z" fill="white"/>
</svg>
