<svg width="96" height="98" viewBox="0 0 96 98" fill="none" xmlns="http://www.w3.org/2000/svg">
<rect y="0.026001" width="95.5654" height="96.9954" rx="10" fill="black"/>
<path fill-rule="evenodd" clip-rule="evenodd" d="M66.6547 18.1549H29.0156V22.602H15.9286V43.4615C15.9286 51.5233 24.7634 58.1572 33.4331 58.8474C36.2792 61.953 41.2853 64.2089 45.7408 65.1708V70.6229C41.4801 71.9558 33.8693 75.0873 33.4331 78.4992H62.6735C62.2331 75.0873 53.8472 71.9515 49.578 70.6229V65.1708C54.0505 64.2089 59.2811 61.953 62.1314 58.8474C70.7968 58.1572 79.242 51.5233 79.242 43.4615V22.602H66.6547V18.1549ZM19.9479 26.5531H28.7107V44.5226C28.7107 48.0682 29.6086 51.4413 31.1884 54.4779C24.6321 52.3514 19.9479 46.8734 19.9479 40.4637V26.5531ZM54.2707 48.4694L47.7314 44.7987L41.1836 48.4694L42.4331 40.7053L37.1389 35.21L44.4533 34.0756L47.7314 27.0189L51.0011 34.0756L58.3154 35.21L53.0213 40.7053L54.2707 48.4694ZM63.9907 55.0516C65.5789 51.877 66.4895 48.3659 66.4895 44.652V26.6695H75.2735V40.412C75.2735 47.1107 70.5681 52.8302 63.9907 55.0516Z" fill="#F8F8F8"/>
</svg>
