<svg width="96" height="98" viewBox="0 0 96 98" fill="none" xmlns="http://www.w3.org/2000/svg">
<rect y="0.026001" width="95.5654" height="96.9954" rx="10" fill="black"/>
<path d="M47.5 57.1147C42.21 57.1147 41.75 54.569 41.75 54.1546H36C36 56.8779 37.8975 61.703 44.625 62.7983V65.9952H50.375V62.7983C56.125 61.7918 59 57.9732 59 54.1546C59 50.8392 57.505 45.2741 47.5 45.2741C41.75 45.2741 41.75 43.4092 41.75 42.3139C41.75 41.2187 43.7625 39.3538 47.5 39.3538C51.2375 39.3538 51.4962 41.2483 51.525 42.3139H57.275C57.2361 40.2973 56.5317 38.3544 55.2776 36.8049C54.0235 35.2554 52.2945 34.1917 50.375 33.7887V30.4733H44.625V33.6998C38.875 34.6767 36 38.4953 36 42.3139C36 45.6293 37.495 51.1944 47.5 51.1944C53.25 51.1944 53.25 53.2073 53.25 54.1546C53.25 55.1018 51.4675 57.1147 47.5 57.1147Z" fill="#F8F8F8"/>
<path d="M27.7 19.309H19V25.1955H24.8V75.2309C24.8 76.0115 25.1055 76.7602 25.6494 77.3121C26.1932 77.8641 26.9309 78.1742 27.7 78.1742H68.3C69.0691 78.1742 69.8068 77.8641 70.3506 77.3121C70.8945 76.7602 71.2 76.0115 71.2 75.2309V25.1955H77V19.309H27.7ZM65.4 72.2877H30.6V25.1955H65.4V72.2877Z" fill="#F8F8F8"/>
</svg>
